<svg xmlns="http://www.w3.org/2000/svg" width="600" height="600" viewBox="0 0 600 600"><rect width="100%" height="100%" fill="#e9ddff"/><path fill="#22005d" d="M208.89 160.255v97.4h-19.53v-80.14h-19.8v-13.78l39.33-3.48Zm78.6 0v97.4h-19.53v-80.14h-19.8v-13.78l39.33-3.48Zm39 7.29h19.54v17.73h12.17v13.71h-12.17v36.86q0 4.22 1.73 6.02 1.74 1.81 4.69 1.81 1.54 0 2.64-.17t2.57-.57l1.68 14.12q-2.95 1-5.76 1.5-2.81.5-6.08.5-10.1 0-15.56-5.55-5.45-5.55-5.45-17.59v-36.93h-10.57v-13.71h10.57v-17.73Zm58 17.73 12.24 42.01.8 4.01h.41l13.84-46.02h21.01l-29.37 83.22q-3.08 7.76-8.36 13.07-5.29 5.32-15.86 5.32-2.47 0-4.58-.4-2.1-.4-5.11-1.14l2.27-14.24q.87.13 1.87.26 1.01.14 1.81.14 4.82 0 7.42-2.38 2.61-2.37 4.02-5.92l2.27-5.62-25.69-72.31h21.01ZM201.8 438.335h-37.53v-97.4h32.91q17.2 0 26.83 6.69 9.63 6.69 9.63 20 0 6.76-3.58 12.08t-10.4 7.99q8.76 1.88 13.15 8.03 4.38 6.15 4.38 14.25 0 13.98-9.23 21.17-9.24 7.19-26.16 7.19Zm1.47-43.08h-19.46v28.1h17.99q7.76 0 11.84-3.38t4.08-10q0-7.16-3.48-10.94-3.48-3.78-10.97-3.78Zm-19.46-39.27v25.76h14.04q7.83 0 12.04-3.21 4.22-3.21 4.22-9.37 0-6.75-4.25-9.96-4.25-3.22-12.68-3.22h-13.37Zm98.8 83.76q-15.65 0-25.02-10.04-9.36-10.03-9.36-25.48v-2.68q0-16.12 8.86-26.56 8.86-10.43 23.78-10.37 14.65 0 22.74 8.83 8.1 8.83 8.1 23.89v10.63h-43.22l-.13.4q.54 7.16 4.78 11.78 4.25 4.61 11.54 4.61 6.49 0 10.77-1.3 4.28-1.31 9.37-4.12l5.28 12.05q-4.41 3.61-11.57 5.98-7.16 2.38-15.92 2.38Zm-1.74-60.07q-5.42 0-8.56 4.14-3.15 4.15-3.88 10.91l.2.33h23.95v-1.74q0-6.22-2.91-9.93t-8.8-3.71Zm74.25 60.07q-15.65 0-25.02-10.04-9.36-10.03-9.36-25.48v-2.68q0-16.12 8.86-26.56 8.87-10.43 23.78-10.37 14.65 0 22.75 8.83 8.09 8.83 8.09 23.89v10.63h-43.21l-.14.4q.54 7.16 4.79 11.78 4.24 4.61 11.54 4.61 6.49 0 10.77-1.3 4.28-1.31 9.36-4.12l5.29 12.05q-4.42 3.61-11.58 5.98-7.15 2.38-15.92 2.38Zm-1.74-60.07q-5.42 0-8.56 4.14-3.14 4.15-3.88 10.91l.2.33h23.95v-1.74q0-6.22-2.91-9.93t-8.8-3.71Zm82.35-14.25-2.07 17.32-7.16-.2q-4.35 0-7.16 1.81-2.81 1.8-4.28 5.08v48.9h-19.47v-72.38h18.13l.87 10.71q2.54-5.69 6.59-8.87 4.05-3.18 9.33-3.18 1.47 0 2.71.24 1.24.23 2.51.57Z"/></svg>